<svg version="1.1" xmlns="http://www.w3.org/2000/svg" viewBox="-296.9599992752075 -1480.064013671875 11378.398143171677 2418.4319824218746"><desc>Created with Snap</desc><defs><linearGradient x1="-296.9599992752075" y1="-1480.064013671875" x2="11081.438143896468" y2="-1480.064013671875" gradientUnits="userSpaceOnUse" id="linearGradientSkzrad8kfy6"><stop offset="0%" stop-color="#8a0059"></stop><stop offset="100%" stop-color="#e9640c"></stop></linearGradient></defs><g><rect x="-296.9599992752075" y="-1480.064013671875" width="11378.398143171677" height="2418.4319824218746" fill="url('#linearGradientSkzrad8kfy6')"></rect><g transform="matrix(20.0444,0,0,20.0444,8870.0169,-1273.0667)"><g transform="translate(0,-952.36218)"><path style="" d="m 45.719885,957.36164 3.18651,38.66594 c -0.0104,0.002 -0.0207,0.005 -0.0312,0.007 -0.004,7.7e-4 -0.008,0.002 -0.0117,0.003 -0.0463,0.009 -0.093,0.0154 -0.13911,0.0247 -0.004,7.6e-4 -0.008,0.002 -0.0116,0.003 -0.0493,0.01 -0.0979,0.0214 -0.14692,0.0325 -0.006,9.5e-4 -0.0104,0.003 -0.0156,0.004 -0.2469,0.0566 -0.49069,0.12668 -0.72935,0.21192 -0.0121,0.005 -0.0243,0.009 -0.0364,0.013 -0.0131,0.005 -0.026,0.009 -0.039,0.0143 l -16.53063,-35.06206 -7.4261,4.25388 22.0885,31.88727 c -0.0888,0.0738 -0.17625,0.14988 -0.26131,0.22881 -0.007,0.007 -0.0138,0.013 -0.0208,0.0195 -0.0278,0.026 -0.0546,0.0528 -0.082,0.0793 -0.0108,0.0104 -0.0218,0.0207 -0.0325,0.0312 -0.027,0.0265 -0.054,0.0535 -0.0806,0.0806 -0.12959,0.13168 -0.25391,0.2685 -0.37052,0.40953 l -31.84697,-22.10018 -4.30459,7.3975 35.07899,16.57354 c -0.003,0.01 -0.006,0.016 -0.009,0.025 -0.0102,0.028 -0.0201,0.055 -0.0299,0.083 -0.004,0.012 -0.008,0.023 -0.0116,0.035 -0.01,0.029 -0.0205,0.057 -0.0299,0.086 -0.008,0.023 -0.0149,0.046 -0.0221,0.069 -0.0107,0.034 -0.0211,0.068 -0.0312,0.1014 -0.005,0.015 -0.009,0.029 -0.013,0.044 -0.009,0.032 -0.0187,0.063 -0.0273,0.095 -0.005,0.019 -0.009,0.037 -0.0143,0.056 -0.007,0.023 -0.0123,0.047 -0.0182,0.07 -0.004,0.015 -0.007,0.029 -0.0104,0.044 -0.0341,0.1397 -0.0639,0.2792 -0.0884,0.4199 l -38.65164,-3.1839 0.0299,8.5572 38.61653,-3.2138 c 0.0675,0.4021 0.1727,0.7969 0.31462,1.1792 l -35.06208,16.5293 4.25389,7.4274 31.88726,-22.0898 c 0.25307,0.3044 0.53719,0.5885 0.85027,0.8463 l -22.10152,31.8496 7.3975,4.3046 16.57354,-35.0803 c 0.37654,0.1391 0.76017,0.2403 1.14668,0.3055 l -3.18652,38.6634 8.55848,-0.03 -3.21511,-38.6374 c 0.0264,-0 0.053,-0.01 0.0793,-0.014 0.0321,-0.01 0.0642,-0.012 0.0962,-0.018 0.0335,-0.01 0.0668,-0.014 0.10011,-0.021 0.29999,-0.063 0.59199,-0.1459 0.87496,-0.2496 l 16.57481,35.0816 7.39621,-4.3046 -22.1015,-31.8496 c 0.30851,-0.2541 0.59265,-0.5371 0.84895,-0.8437 l 31.88727,22.0898 4.25388,-7.4274 -35.05427,-16.5268 c 0.14193,-0.3794 0.24892,-0.7761 0.31722,-1.1856 l 38.63343,3.2151 0.0299,-8.55722 -38.66854,3.18522 c -0.0674,-0.3924 -0.17038,-0.773 -0.30551,-1.1376 l 35.06857,-16.56831 -4.30458,-7.3975 -31.84437,22.0989 c -0.0287,-0.0346 -0.0565,-0.0688 -0.0858,-0.1027 -0.10171,-0.11774 -0.20865,-0.23059 -0.31853,-0.34063 -9.4e-4,-9.5e-4 -0.002,-0.003 -0.003,-0.004 -0.0341,-0.0341 -0.0691,-0.068 -0.104,-0.10142 -0.002,-0.002 -0.005,-0.005 -0.007,-0.007 -0.035,-0.0333 -0.071,-0.0663 -0.10661,-0.0988 -0.002,-0.002 -0.004,-0.005 -0.007,-0.007 -0.0357,-0.0325 -0.0714,-0.0633 -0.10791,-0.0949 -0.002,-0.002 -0.004,-0.005 -0.007,-0.007 -0.0335,-0.0291 -0.0686,-0.0575 -0.1027,-0.0858 l 22.08718,-31.88469 -7.42611,-4.25387 -16.52802,35.05687 c -0.37416,-0.13875 -0.76416,-0.24216 -1.16748,-0.30943 l 3.2151,-38.63342 -8.55848,-0.0299 z" fill="#ffffff" fill-opacity="1" fill-rule="nonzero" stroke="none"></path></g><desc>Created with Snap</desc><defs></defs></g><g><g transform="matrix(1.024,0,0,-1.024,0,0)"><path d="M58 585L34 585Q10 585 10 611Q10 638 34 638L136 638Q158 638 158 611Q158 585 136 585L116 585L285 77L370 314L280 585L258 585Q247 585 240 592Q233 600 233 611Q233 622 240 630Q247 638 258 638L354 638Q366 638 374 630Q382 622 382 611Q382 600 374 592Q367 585 354 585L337 585L508 71L659 504Q672 541 672 562Q672 584 657 588Q639 567 615 567Q591 567 578 577Q566 588 566 608Q566 628 585 642Q604 656 638 656Q672 656 696 629Q720 602 720 569Q720 537 703 490L534 14Q526 -10 504 -10Q494 -10 483 -4Q473 2 470 12L393 243L310 14Q301 -10 279 -10Q258 -10 250 13L58 585ZM1056 332Q1052 372 1020 409Q988 446 940 446Q893 446 862 411Q831 376 819 332L1056 332ZM951 -10Q860 -10 805 61Q750 132 750 242Q750 352 802 421Q855 490 941 490Q985 490 1020 470Q1055 451 1074 422Q1114 363 1114 310Q1114 282 1088 282L808 282Q806 269 806 245Q806 153 847 94Q889 35 951 35Q978 35 1000 49Q1022 64 1031 77Q1040 91 1051 114Q1063 137 1083 137Q1113 137 1113 110Q1113 75 1068 32Q1024 -10 951 -10ZM1228 585L1228 405Q1276 482 1362 482Q1449 482 1497 413Q1546 344 1546 236Q1546 129 1496 61Q1446 -7 1358 -7Q1271 -7 1221 58Q1172 123 1172 242L1172 585L1146 585Q1124 585 1124 611Q1124 637 1146 637L1254 637Q1265 637 1271 629Q1277 622 1277 611Q1277 601 1271 593Q1265 585 1254 585L1228 585ZM1224 230Q1224 137 1263 87Q1302 38 1354 38Q1407 38 1438 71Q1491 127 1491 236Q1491 308 1464 368Q1450 399 1423 418Q1396 437 1360 437Q1297 437 1260 380Q1224 324 1224 230ZM1946 580L1946 57Q1946 45 1995 45Q2045 45 2098 60Q2152 76 2197 106Q2243 137 2270 190Q2297 244 2297 324Q2297 404 2252 469Q2167 592 1990 592Q1946 592 1946 580ZM1889 52L1889 585L1866 585Q1841 585 1841 611Q1841 638 1865 638L1984 638Q2145 637 2248 552Q2352 468 2352 315Q2352 162 2249 81Q2147 0 1979 0L1865 0Q1841 0 1841 26Q1841 52 1865 52L1889 52ZM2693 332Q2689 372 2657 409Q2625 446 2577 446Q2530 446 2499 411Q2468 376 2456 332L2693 332ZM2588 -10Q2497 -10 2442 61Q2387 132 2387 242Q2387 352 2439 421Q2492 490 2578 490Q2622 490 2657 470Q2692 451 2711 422Q2751 363 2751 310Q2751 282 2725 282L2445 282Q2443 269 2443 245Q2443 153 2484 94Q2526 35 2588 35Q2615 35 2637 49Q2659 64 2668 77Q2677 91 2688 114Q2700 137 2720 137Q2750 137 2750 110Q2750 75 2705 32Q2661 -10 2588 -10ZM2828 18L2828 428L2799 428Q2776 428 2776 454Q2776 480 2799 480L2911 480Q2921 480 2929 472Q2937 464 2937 454Q2937 444 2929 436Q2921 428 2911 428L2884 428L2884 43Q2931 43 2980 97Q3030 152 3061 232Q3093 312 3093 383Q3093 421 3083 423Q3071 420 3064 420Q3044 420 3028 438Q3013 456 3013 474Q3013 516 3054 516Q3089 516 3114 483Q3139 450 3139 371Q3139 292 3099 200Q3059 109 2994 49Q2930 -10 2864 -10Q2844 -10 2836 -4Q2828 3 2828 18ZM3475 332Q3471 372 3439 409Q3407 446 3359 446Q3312 446 3281 411Q3250 376 3238 332L3475 332ZM3370 -10Q3279 -10 3224 61Q3169 132 3169 242Q3169 352 3221 421Q3274 490 3360 490Q3404 490 3439 470Q3474 451 3493 422Q3533 363 3533 310Q3533 282 3507 282L3227 282Q3225 269 3225 245Q3225 153 3266 94Q3308 35 3370 35Q3397 35 3419 49Q3441 64 3450 77Q3459 91 3470 114Q3482 137 3502 137Q3532 137 3532 110Q3532 75 3487 32Q3443 -10 3370 -10ZM3619 52L3619 585L3587 585Q3575 585 3568 592Q3561 600 3561 611Q3561 623 3568 630Q3575 637 3587 637L3644 637Q3661 637 3668 631Q3675 625 3675 609L3675 52L3700 52Q3712 52 3718 44Q3725 36 3725 26Q3725 0 3700 0L3594 0Q3583 0 3576 7Q3569 15 3569 25Q3569 36 3576 44Q3583 52 3594 52L3619 52ZM3768 241Q3768 349 3829 418Q3891 488 3995 488Q4100 488 4161 419Q4223 350 4223 242Q4223 135 4162 64Q4101 -6 3994 -6Q3888 -6 3828 64Q3768 134 3768 241ZM3873 99Q3922 41 3995 41Q4068 41 4117 98Q4167 156 4167 241Q4167 326 4117 383Q4067 441 3995 441Q3923 441 3873 384Q3824 327 3824 242Q3824 157 3873 99ZM4290 -75L4321 -75L4321 428L4284 428Q4275 428 4269 436Q4263 444 4263 454Q4263 464 4269 472Q4275 480 4284 480L4358 480Q4370 480 4373 476Q4376 473 4376 462L4376 401Q4397 437 4435 459Q4473 482 4516 482Q4600 482 4648 415Q4696 349 4696 242Q4696 136 4647 67Q4599 -2 4514 -2Q4471 -2 4433 19Q4395 41 4377 73L4377 -75L4407 -75Q4418 -75 4425 -82Q4432 -89 4432 -100Q4432 -127 4407 -127L4290 -127Q4266 -127 4266 -100Q4266 -89 4273 -82Q4280 -75 4290 -75ZM4640 257Q4640 319 4609 378Q4578 437 4512 437Q4446 437 4409 385Q4373 333 4373 242Q4373 152 4409 97Q4446 43 4512 43Q4560 43 4590 77Q4620 111 4630 153Q4640 195 4640 257ZM5042 332Q5038 372 5006 409Q4974 446 4926 446Q4879 446 4848 411Q4817 376 4805 332L5042 332ZM4937 -10Q4846 -10 4791 61Q4736 132 4736 242Q4736 352 4788 421Q4841 490 4927 490Q4971 490 5006 470Q5041 451 5060 422Q5100 363 5100 310Q5100 282 5074 282L4794 282Q4792 269 4792 245Q4792 153 4833 94Q4875 35 4937 35Q4964 35 4986 49Q5008 64 5017 77Q5026 91 5037 114Q5049 137 5069 137Q5099 137 5099 110Q5099 75 5054 32Q5010 -10 4937 -10ZM5360 435L5228 435L5228 52L5247 52Q5259 52 5265 44Q5272 37 5272 26Q5272 0 5247 0L5152 0Q5126 0 5126 26Q5126 52 5152 52L5172 52L5172 428L5152 428Q5139 428 5132 436Q5125 444 5125 454Q5125 465 5132 472Q5139 480 5152 480L5337 480Q5388 480 5414 458Q5440 437 5440 404Q5440 387 5432 373Q5424 360 5406 360Q5388 360 5373 376Q5359 393 5358 411Q5358 430 5360 435ZM5705 143Q5705 177 5723 198Q5741 220 5759 220Q5778 220 5788 207Q5799 194 5799 176Q5799 139 5772 117Q5783 74 5817 53Q5852 33 5894 33Q5956 33 5992 75Q6029 117 6029 169Q6029 222 5989 260Q5959 287 5912 318L5861 351Q5806 386 5777 423Q5748 461 5748 516Q5748 572 5790 610Q5832 649 5889 649Q5947 649 5986 623Q6025 597 6025 560Q6025 542 6014 531Q6004 521 5984 521Q5964 521 5945 538Q5927 555 5927 569Q5927 583 5930 592Q5921 609 5888 609Q5855 609 5829 583Q5804 557 5804 525Q5804 473 5898 411L5949 377Q5982 354 5998 341Q6015 329 6040 303Q6088 253 6088 171Q6088 89 6031 39Q5974 -11 5896 -11Q5818 -11 5761 36Q5705 84 5705 143ZM6455 224L6455 428L6432 428Q6421 428 6413 436Q6406 444 6406 454Q6406 464 6413 472Q6421 480 6432 480L6533 480Q6557 480 6557 454Q6557 428 6533 428L6511 428L6511 52L6548 52Q6571 52 6571 26Q6571 14 6564 7Q6557 0 6548 0L6477 0Q6465 0 6460 4Q6456 9 6456 21L6456 86Q6399 -7 6306 -7Q6233 -7 6198 42Q6163 92 6163 157L6163 428L6141 428Q6130 428 6124 436Q6118 444 6118 454Q6118 464 6124 472Q6130 480 6141 480L6243 480Q6254 480 6261 472Q6268 464 6268 454Q6268 444 6261 436Q6254 428 6243 428L6219 428L6219 156Q6219 112 6242 76Q6265 40 6316 40Q6368 40 6411 92Q6455 144 6455 224ZM7222 330L7222 52L7245 52Q7256 52 7262 44Q7268 36 7268 26Q7268 16 7262 8Q7256 0 7245 0L7149 0Q7138 0 7132 8Q7126 16 7126 26Q7126 36 7132 44Q7138 52 7149 52L7166 52L7166 316Q7166 378 7153 408Q7140 439 7100 439Q7061 439 7032 406Q6978 346 6978 258L6978 52L6998 52Q7010 52 7016 44Q7023 36 7023 25Q7023 15 7016 7Q7010 0 6998 0L6903 0Q6877 0 6877 26Q6877 52 6903 52L6923 52L6923 323Q6923 356 6919 379Q6915 402 6899 420Q6883 439 6855 439Q6800 439 6767 381Q6735 323 6735 260L6735 52L6755 52Q6764 52 6771 43Q6779 35 6779 25Q6779 16 6772 8Q6765 0 6755 0L6653 0Q6641 0 6634 8Q6627 16 6627 26Q6627 36 6634 44Q6641 52 6653 52L6679 52L6679 428L6644 428Q6634 428 6627 435Q6621 442 6621 454Q6621 467 6628 473Q6636 480 6644 480L6718 480Q6728 480 6731 477Q6735 474 6735 463L6735 398L6737 398Q6781 486 6862 486Q6944 486 6969 392Q7025 486 7107 486Q7170 486 7196 440Q7222 395 7222 330ZM7919 330L7919 52L7942 52Q7953 52 7959 44Q7965 36 7965 26Q7965 16 7959 8Q7953 0 7942 0L7846 0Q7835 0 7829 8Q7823 16 7823 26Q7823 36 7829 44Q7835 52 7846 52L7863 52L7863 316Q7863 378 7850 408Q7837 439 7797 439Q7758 439 7729 406Q7675 346 7675 258L7675 52L7695 52Q7707 52 7713 44Q7720 36 7720 25Q7720 15 7713 7Q7707 0 7695 0L7600 0Q7574 0 7574 26Q7574 52 7600 52L7620 52L7620 323Q7620 356 7616 379Q7612 402 7596 420Q7580 439 7552 439Q7497 439 7464 381Q7432 323 7432 260L7432 52L7452 52Q7461 52 7468 43Q7476 35 7476 25Q7476 16 7469 8Q7462 0 7452 0L7350 0Q7338 0 7331 8Q7324 16 7324 26Q7324 36 7331 44Q7338 52 7350 52L7376 52L7376 428L7341 428Q7331 428 7324 435Q7318 442 7318 454Q7318 467 7325 473Q7333 480 7341 480L7415 480Q7425 480 7428 477Q7432 474 7432 463L7432 398L7434 398Q7478 486 7559 486Q7641 486 7666 392Q7722 486 7804 486Q7867 486 7893 440Q7919 395 7919 330ZM8070 53L8070 429L8044 429Q8032 429 8025 436Q8018 444 8018 454Q8018 480 8044 480L8094 480Q8125 480 8126 453L8126 52L8151 52Q8163 52 8169 44Q8176 36 8176 26Q8176 0 8151 0L8045 0Q8035 0 8027 7Q8020 15 8020 25Q8020 35 8027 43Q8035 52 8045 52L8070 53ZM8085 635Q8105 635 8118 622Q8132 609 8132 590Q8132 572 8118 559Q8105 546 8085 546Q8066 546 8052 559Q8039 572 8039 590Q8039 609 8052 622Q8065 635 8085 635ZM8402 65Q8402 78 8410 86Q8418 94 8431 94Q8444 94 8452 86Q8460 79 8460 66Q8460 37 8434 13Q8409 -10 8371 -10Q8333 -10 8308 16Q8283 43 8283 82L8283 428L8240 428Q8229 428 8221 436Q8214 444 8214 454Q8214 464 8221 472Q8229 480 8240 480L8264 480Q8280 480 8284 484Q8288 489 8288 503L8288 557Q8288 596 8328 596Q8340 596 8340 584L8340 480L8384 480Q8411 480 8411 453Q8411 443 8404 435Q8397 428 8384 428L8340 428L8340 83Q8340 36 8371 36Q8402 36 8402 65Z" fill="#ffffff" style=""></path></g></g></g></svg>